# xmcd
#
# Track frame offsets: 
#        150
#        16730
#        35265
#        52450
#        70439
#        87430
#        107714
#        124808
#        139717
#        155830
#
# Disc length: 2319 seconds
#
# Revision: 0
# Processed by: cddbd v1.5.1PL2 Copyright (c) Steve Scherf et al.
# Submitted via: ExactAudioCopy v0.95b3
#
DISCID=8e090d0a
DTITLE=Siriporn Umpaipong - Parinya jai
DYEAR=2000
DGENRE=Country
TTITLE0=Nee mae ma pae ruk
TTITLE1=Sieng nok sakod jai
TTITLE2=Parinya ja
TTITLE3=Yark luem fan hao
TTITLE4=Ruk srao sao Khonkhaen
TTITLE5=Koi huk kuen ja
TTITLE6=Song huk song hang
TTITLE7=Song tua jao bao
TTITLE8=Toong ruk na rao
TTITLE9=Oak sao klai baan
EXTD=
EXTT0=
EXTT1=
EXTT2=
EXTT3=
EXTT4=
EXTT5=
EXTT6=
EXTT7=
EXTT8=
EXTT9=
PLAYORDER=
